# xmcd
#
# Track frame offsets:
#	150
#	16460
#	30397
#	44052
#	65977
#	82197
#	98499
#	113465
#	128873
#	148668
#	165283
#	177525
#	193468
#
# Disc length: 3107 seconds
#
# Revision: 1
# Processed by: cddbd v1.5.2PL0 Copyright (c) Steve Scherf et al.
# Submitted via: EasyCDDAExtractor 10.0.6.1
#
DISCID=b80c210d
DTITLE=Kelly Clarkson - My December
DYEAR=2007
DGENRE=Rock and Roll
TTITLE0=Never Again
TTITLE1=One Minute
TTITLE2=Hole
TTITLE3=Sober
TTITLE4=Dont Waste Your Time
TTITLE5=Judas
TTITLE6=Haunted
TTITLE7=Be Still
TTITLE8=Maybe
TTITLE9=How I Feel
TTITLE10=Yeah
TTITLE11=Can I Have a Kiss
TTITLE12=Irvine
EXTD=
EXTT0=
EXTT1=
EXTT2=
EXTT3=
EXTT4=
EXTT5=
EXTT6=
EXTT7=
EXTT8=
EXTT9=
EXTT10=
EXTT11=
EXTT12=
PLAYORDER=
